<?xml version="1.0" encoding="UTF-8"?>
<svg version="1.1" xmlns="http://www.w3.org/2000/svg" width="400" height="400">
<path d="M0 0 C2.64 0 5.28 0 8 0 C8 2.64 8 5.28 8 8 C6.02 8 4.04 8 2 8 C2 8.66 2 9.32 2 10 C1.34 10 0.68 10 0 10 C0 11.98 0 13.96 0 16 C-2.64 16 -5.28 16 -8 16 C-8 21.28 -8 26.56 -8 32 C-2.72 32 2.56 32 8 32 C8 29.36 8 26.72 8 24 C15.92 24 23.84 24 32 24 C32 21.36 32 18.72 32 16 C39.92 16 47.84 16 56 16 C56 18.64 56 21.28 56 24 C50.72 24 45.44 24 40 24 C40 26.64 40 29.28 40 32 C32.08 32 24.16 32 16 32 C16 37.28 16 42.56 16 48 C18.64 48 21.28 48 24 48 C24 50.64 24 53.28 24 56 C26.64 56 29.28 56 32 56 C32 61.28 32 66.56 32 72 C29.36 72 26.72 72 24 72 C24 79.92 24 87.84 24 96 C26.64 96 29.28 96 32 96 C32 101.28 32 106.56 32 112 C34.64 112 37.28 112 40 112 C40 117.28 40 122.56 40 128 C37.36 128 34.72 128 32 128 C32 133.28 32 138.56 32 144 C29.36 144 26.72 144 24 144 C24 146.64 24 149.28 24 152 C26.64 152 29.28 152 32 152 C32 154.64 32 157.28 32 160 C34.64 160 37.28 160 40 160 C40 165.28 40 170.56 40 176 C37.36 176 34.72 176 32 176 C32 178.64 32 181.28 32 184 C37.28 184 42.56 184 48 184 C48 186.64 48 189.28 48 192 C45.36 192 42.72 192 40 192 C40 194.64 40 197.28 40 200 C37.36 200 34.72 200 32 200 C32 205.28 32 210.56 32 216 C34.64 216 37.28 216 40 216 C40 213.36 40 210.72 40 208 C42.64 208 45.28 208 48 208 C48 210.64 48 213.28 48 216 C50.64 216 53.28 216 56 216 C56 213.36 56 210.72 56 208 C63.92 208 71.84 208 80 208 C80 205.36 80 202.72 80 200 C82.64 200 85.28 200 88 200 C88 202.64 88 205.28 88 208 C93.28 208 98.56 208 104 208 C104 205.36 104 202.72 104 200 C106.64 200 109.28 200 112 200 C112 205.28 112 210.56 112 216 C114.64 216 117.28 216 120 216 C120 218.64 120 221.28 120 224 C122.64 224 125.28 224 128 224 C128 229.28 128 234.56 128 240 C130.64 240 133.28 240 136 240 C136 237.36 136 234.72 136 232 C141.28 232 146.56 232 152 232 C152 237.28 152 242.56 152 248 C157.28 248 162.56 248 168 248 C168 250.64 168 253.28 168 256 C170.64 256 173.28 256 176 256 C176 261.28 176 266.56 176 272 C173.36 272 170.72 272 168 272 C168 274.64 168 277.28 168 280 C170.64 280 173.28 280 176 280 C176 287.92 176 295.84 176 304 C178.64 304 181.28 304 184 304 C184 306.64 184 309.28 184 312 C186.64 312 189.28 312 192 312 C192 309.36 192 306.72 192 304 C194.64 304 197.28 304 200 304 C200 301.36 200 298.72 200 296 C197.36 296 194.72 296 192 296 C192 290.72 192 285.44 192 280 C194.64 280 197.28 280 200 280 C200 277.36 200 274.72 200 272 C205.28 272 210.56 272 216 272 C216 274.64 216 277.28 216 280 C218.64 280 221.28 280 224 280 C224 282.64 224 285.28 224 288 C226.64 288 229.28 288 232 288 C232 293.28 232 298.56 232 304 C234.64 304 237.28 304 240 304 C240 314.56 240 325.12 240 336 C237.36 336 234.72 336 232 336 C232 341.28 232 346.56 232 352 C229.36 352 226.72 352 224 352 C224 354.64 224 357.28 224 360 C218.72 360 213.44 360 208 360 C208 362.64 208 365.28 208 368 C189.52 368 171.04 368 152 368 C152 365.36 152 362.72 152 360 C149.36 360 146.72 360 144 360 C144 357.36 144 354.72 144 352 C141.36 352 138.72 352 136 352 C136 359.92 136 367.84 136 376 C133.36 376 130.72 376 128 376 C128 381.28 128 386.56 128 392 C122.72 392 117.44 392 112 392 C112 381.44 112 370.88 112 360 C109.36 360 106.72 360 104 360 C104 365.28 104 370.56 104 376 C101.36 376 98.72 376 96 376 C96 381.28 96 386.56 96 392 C90.72 392 85.44 392 80 392 C80 381.44 80 370.88 80 360 C77.36 360 74.72 360 72 360 C72 354.72 72 349.44 72 344 C64.08 344 56.16 344 48 344 C48 346.64 48 349.28 48 352 C45.36 352 42.72 352 40 352 C40 354.64 40 357.28 40 360 C37.36 360 34.72 360 32 360 C32 365.28 32 370.56 32 376 C29.36 376 26.72 376 24 376 C24 381.28 24 386.56 24 392 C18.72 392 13.44 392 8 392 C8 376.16 8 360.32 8 344 C5.36 344 2.72 344 0 344 C0 349.28 0 354.56 0 360 C-2.64 360 -5.28 360 -8 360 C-8 365.28 -8 370.56 -8 376 C-10.64 376 -13.28 376 -16 376 C-16 381.28 -16 386.56 -16 392 C-21.28 392 -26.56 392 -32 392 C-32 360.32 -32 328.64 -32 296 C-34.64 296 -37.28 296 -40 296 C-40 285.44 -40 274.88 -40 264 C-42.64 264 -45.28 264 -48 264 C-48 234.96 -48 205.92 -48 176 C-45.36 176 -42.72 176 -40 176 C-40 165.44 -40 154.88 -40 144 C-37.36 144 -34.72 144 -32 144 C-32 133.44 -32 122.88 -32 112 C-34.64 112 -37.28 112 -40 112 C-40 114.64 -40 117.28 -40 120 C-42.64 120 -45.28 120 -48 120 C-48 122.64 -48 125.28 -48 128 C-50.64 128 -53.28 128 -56 128 C-56 135.92 -56 143.84 -56 152 C-58.64 152 -61.28 152 -64 152 C-64 154.64 -64 157.28 -64 160 C-66.64 160 -69.28 160 -72 160 C-72 162.64 -72 165.28 -72 168 C-77.28 168 -82.56 168 -88 168 C-88 165.36 -88 162.72 -88 160 C-85.36 160 -82.72 160 -80 160 C-80 157.36 -80 154.72 -80 152 C-77.36 152 -74.72 152 -72 152 C-72 149.36 -72 146.72 -72 144 C-69.36 144 -66.72 144 -64 144 C-64 141.36 -64 138.72 -64 136 C-74.56 136 -85.12 136 -96 136 C-96 138.64 -96 141.28 -96 144 C-98.64 144 -101.28 144 -104 144 C-104 146.64 -104 149.28 -104 152 C-109.28 152 -114.56 152 -120 152 C-120 149.36 -120 146.72 -120 144 C-117.36 144 -114.72 144 -112 144 C-112 141.36 -112 138.72 -112 136 C-109.36 136 -106.72 136 -104 136 C-104 125.44 -104 114.88 -104 104 C-101.36 104 -98.72 104 -96 104 C-96 101.36 -96 98.72 -96 96 C-93.36 96 -90.72 96 -88 96 C-88 90.72 -88 85.44 -88 80 C-85.36 80 -82.72 80 -80 80 C-80 74.72 -80 69.44 -80 64 C-77.36 64 -74.72 64 -72 64 C-72 61.36 -72 58.72 -72 56 C-69.36 56 -66.72 56 -64 56 C-64 53.36 -64 50.72 -64 48 C-61.36 48 -58.72 48 -56 48 C-56 45.36 -56 42.72 -56 40 C-58.64 40 -61.28 40 -64 40 C-64 34.72 -64 29.44 -64 24 C-61.36 24 -58.72 24 -56 24 C-56 21.36 -56 18.72 -56 16 C-53.36 16 -50.72 16 -48 16 C-48 18.64 -48 21.28 -48 24 C-45.36 24 -42.72 24 -40 24 C-40 26.64 -40 29.28 -40 32 C-37.36 32 -34.72 32 -32 32 C-32 29.36 -32 26.72 -32 24 C-29.36 24 -26.72 24 -24 24 C-24 21.36 -24 18.72 -24 16 C-21.36 16 -18.72 16 -16 16 C-16 13.36 -16 10.72 -16 8 C-11.38 8 -6.76 8 -2 8 C-2 7.34 -2 6.68 -2 6 C-1.34 6 -0.68 6 0 6 C0 4.02 0 2.04 0 0 Z " fill="#6BC137" transform="translate(128,8)"/>
<path d="M0 0 C2.64 0 5.28 0 8 0 C8 2.64 8 5.28 8 8 C10.64 8 13.28 8 16 8 C16 42.32 16 76.64 16 112 C18.64 112 21.28 112 24 112 C24 127.84 24 143.68 24 160 C26.64 160 29.28 160 32 160 C32 162.64 32 165.28 32 168 C34.64 168 37.28 168 40 168 C40 165.36 40 162.72 40 160 C42.64 160 45.28 160 48 160 C48 157.36 48 154.72 48 152 C66.48 152 84.96 152 104 152 C104 154.64 104 157.28 104 160 C109.28 160 114.56 160 120 160 C120 162.64 120 165.28 120 168 C122.64 168 125.28 168 128 168 C128 170.64 128 173.28 128 176 C133.28 176 138.56 176 144 176 C144 181.28 144 186.56 144 192 C146.64 192 149.28 192 152 192 C152 197.28 152 202.56 152 208 C154.64 208 157.28 208 160 208 C160 215.92 160 223.84 160 232 C162.64 232 165.28 232 168 232 C168 239.92 168 247.84 168 256 C170.64 256 173.28 256 176 256 C176 258.64 176 261.28 176 264 C178.64 264 181.28 264 184 264 C184 261.36 184 258.72 184 256 C186.64 256 189.28 256 192 256 C192 253.36 192 250.72 192 248 C194.64 248 197.28 248 200 248 C200 250.64 200 253.28 200 256 C202.64 256 205.28 256 208 256 C208 258.64 208 261.28 208 264 C202.72 264 197.44 264 192 264 C192 266.64 192 269.28 192 272 C181.44 272 170.88 272 160 272 C160 264.08 160 256.16 160 248 C157.36 248 154.72 248 152 248 C152 240.08 152 232.16 152 224 C149.36 224 146.72 224 144 224 C144 218.72 144 213.44 144 208 C141.36 208 138.72 208 136 208 C136 202.72 136 197.44 136 192 C130.72 192 125.44 192 120 192 C120 189.36 120 186.72 120 184 C114.72 184 109.44 184 104 184 C104 181.36 104 178.72 104 176 C101.36 176 98.72 176 96 176 C96 173.36 96 170.72 96 168 C80.16 168 64.32 168 48 168 C48 170.64 48 173.28 48 176 C37.44 176 26.88 176 16 176 C16 173.36 16 170.72 16 168 C13.36 168 10.72 168 8 168 C8 160.08 8 152.16 8 144 C5.36 144 2.72 144 0 144 C0 133.44 0 122.88 0 112 C2.64 112 5.28 112 8 112 C8 88.24 8 64.48 8 40 C5.36 40 2.72 40 0 40 C0 26.8 0 13.6 0 0 Z " fill="#43AA01" transform="translate(128,80)"/>
<path d="M0 0 C5.28 0 10.56 0 16 0 C16 2.64 16 5.28 16 8 C18.64 8 21.28 8 24 8 C24 10.64 24 13.28 24 16 C26.64 16 29.28 16 32 16 C32 21.28 32 26.56 32 32 C29.36 32 26.72 32 24 32 C24 39.92 24 47.84 24 56 C26.64 56 29.28 56 32 56 C32 61.28 32 66.56 32 72 C34.64 72 37.28 72 40 72 C40 77.28 40 82.56 40 88 C37.36 88 34.72 88 32 88 C32 93.28 32 98.56 32 104 C29.36 104 26.72 104 24 104 C24 106.64 24 109.28 24 112 C26.64 112 29.28 112 32 112 C32 114.64 32 117.28 32 120 C34.64 120 37.28 120 40 120 C40 125.28 40 130.56 40 136 C37.36 136 34.72 136 32 136 C32 138.64 32 141.28 32 144 C37.28 144 42.56 144 48 144 C48 146.64 48 149.28 48 152 C45.36 152 42.72 152 40 152 C40 154.64 40 157.28 40 160 C37.36 160 34.72 160 32 160 C32 165.28 32 170.56 32 176 C34.64 176 37.28 176 40 176 C40 173.36 40 170.72 40 168 C42.64 168 45.28 168 48 168 C48 170.64 48 173.28 48 176 C50.64 176 53.28 176 56 176 C56 173.36 56 170.72 56 168 C63.92 168 71.84 168 80 168 C80 165.36 80 162.72 80 160 C82.64 160 85.28 160 88 160 C88 162.64 88 165.28 88 168 C93.28 168 98.56 168 104 168 C104 165.36 104 162.72 104 160 C106.64 160 109.28 160 112 160 C112 165.28 112 170.56 112 176 C114.64 176 117.28 176 120 176 C120 178.64 120 181.28 120 184 C122.64 184 125.28 184 128 184 C128 189.28 128 194.56 128 200 C125.36 200 122.72 200 120 200 C120 197.36 120 194.72 120 192 C114.72 192 109.44 192 104 192 C104 189.36 104 186.72 104 184 C85.52 184 67.04 184 48 184 C48 186.64 48 189.28 48 192 C45.36 192 42.72 192 40 192 C40 194.64 40 197.28 40 200 C37.36 200 34.72 200 32 200 C32 197.36 32 194.72 32 192 C29.36 192 26.72 192 24 192 C24 176.16 24 160.32 24 144 C21.36 144 18.72 144 16 144 C16 109.68 16 75.36 16 40 C13.36 40 10.72 40 8 40 C8 32.08 8 24.16 8 16 C5.36 16 2.72 16 0 16 C0 10.72 0 5.44 0 0 Z " fill="#EE318B" transform="translate(128,48)"/>
<path d="M0 0 C2.64 0 5.28 0 8 0 C8 18.48 8 36.96 8 56 C5.36 56 2.72 56 0 56 C0 69.2 0 82.4 0 96 C2.64 96 5.28 96 8 96 C8 109.2 8 122.4 8 136 C10.64 136 13.28 136 16 136 C16 143.92 16 151.84 16 160 C18.64 160 21.28 160 24 160 C24 165.28 24 170.56 24 176 C26.64 176 29.28 176 32 176 C32 178.64 32 181.28 32 184 C37.28 184 42.56 184 48 184 C48 186.64 48 189.28 48 192 C50.64 192 53.28 192 56 192 C56 210.48 56 228.96 56 248 C53.36 248 50.72 248 48 248 C48 232.16 48 216.32 48 200 C45.36 200 42.72 200 40 200 C40 205.28 40 210.56 40 216 C37.36 216 34.72 216 32 216 C32 221.28 32 226.56 32 232 C29.36 232 26.72 232 24 232 C24 237.28 24 242.56 24 248 C18.72 248 13.44 248 8 248 C8 216.32 8 184.64 8 152 C5.36 152 2.72 152 0 152 C0 141.44 0 130.88 0 120 C-2.64 120 -5.28 120 -8 120 C-8 90.96 -8 61.92 -8 32 C-5.36 32 -2.72 32 0 32 C0 21.44 0 10.88 0 0 Z " fill="#8DD759" transform="translate(88,152)"/>
<path d="M0 0 C5.28 0 10.56 0 16 0 C16 5.28 16 10.56 16 16 C21.28 16 26.56 16 32 16 C32 18.64 32 21.28 32 24 C34.64 24 37.28 24 40 24 C40 29.28 40 34.56 40 40 C37.36 40 34.72 40 32 40 C32 42.64 32 45.28 32 48 C34.64 48 37.28 48 40 48 C40 55.92 40 63.84 40 72 C42.64 72 45.28 72 48 72 C48 74.64 48 77.28 48 80 C50.64 80 53.28 80 56 80 C56 77.36 56 74.72 56 72 C58.64 72 61.28 72 64 72 C64 69.36 64 66.72 64 64 C61.36 64 58.72 64 56 64 C56 58.72 56 53.44 56 48 C58.64 48 61.28 48 64 48 C64 45.36 64 42.72 64 40 C69.28 40 74.56 40 80 40 C80 45.28 80 50.56 80 56 C77.36 56 74.72 56 72 56 C72 58.64 72 61.28 72 64 C74.64 64 77.28 64 80 64 C80 69.28 80 74.56 80 80 C77.36 80 74.72 80 72 80 C72 85.28 72 90.56 72 96 C69.36 96 66.72 96 64 96 C64 93.36 64 90.72 64 88 C61.36 88 58.72 88 56 88 C56 90.64 56 93.28 56 96 C53.36 96 50.72 96 48 96 C48 98.64 48 101.28 48 104 C45.36 104 42.72 104 40 104 C40 101.36 40 98.72 40 96 C37.36 96 34.72 96 32 96 C32 88.08 32 80.16 32 72 C29.36 72 26.72 72 24 72 C24 64.08 24 56.16 24 48 C21.36 48 18.72 48 16 48 C16 42.72 16 37.44 16 32 C13.36 32 10.72 32 8 32 C8 26.72 8 21.44 8 16 C2.72 16 -2.56 16 -8 16 C-8 13.36 -8 10.72 -8 8 C-5.36 8 -2.72 8 0 8 C0 5.36 0 2.72 0 0 Z " fill="#FA4CA5" transform="translate(264,240)"/>
<path d="M0 0 C2.64 0 5.28 0 8 0 C8 2.64 8 5.28 8 8 C10.64 8 13.28 8 16 8 C16 13.28 16 18.56 16 24 C18.64 24 21.28 24 24 24 C24 34.56 24 45.12 24 56 C21.36 56 18.72 56 16 56 C16 61.28 16 66.56 16 72 C13.36 72 10.72 72 8 72 C8 74.64 8 77.28 8 80 C2.72 80 -2.56 80 -8 80 C-8 82.64 -8 85.28 -8 88 C-26.48 88 -44.96 88 -64 88 C-64 85.36 -64 82.72 -64 80 C-66.64 80 -69.28 80 -72 80 C-72 77.36 -72 74.72 -72 72 C-74.64 72 -77.28 72 -80 72 C-80 69.36 -80 66.72 -80 64 C-74.72 64 -69.44 64 -64 64 C-64 66.64 -64 69.28 -64 72 C-61.36 72 -58.72 72 -56 72 C-56 74.64 -56 77.28 -56 80 C-42.8 80 -29.6 80 -16 80 C-16 77.36 -16 74.72 -16 72 C-10.72 72 -5.44 72 0 72 C0 69.36 0 66.72 0 64 C2.64 64 5.28 64 8 64 C8 56.08 8 48.16 8 40 C5.36 40 2.72 40 0 40 C0 42.64 0 45.28 0 48 C-2.64 48 -5.28 48 -8 48 C-8 42.72 -8 37.44 -8 32 C-5.36 32 -2.72 32 0 32 C0 26.72 0 21.44 0 16 C-2.64 16 -5.28 16 -8 16 C-8 13.36 -8 10.72 -8 8 C-5.36 8 -2.72 8 0 8 C0 5.36 0 2.72 0 0 Z " fill="#43AA01" transform="translate(344,288)"/>
<path d="M0 0 C2.64 0 5.28 0 8 0 C8 5.28 8 10.56 8 16 C10.64 16 13.28 16 16 16 C16 21.28 16 26.56 16 32 C21.28 32 26.56 32 32 32 C32 37.28 32 42.56 32 48 C29.36 48 26.72 48 24 48 C24 53.28 24 58.56 24 64 C21.36 64 18.72 64 16 64 C16 69.28 16 74.56 16 80 C10.72 80 5.44 80 0 80 C0 53.6 0 27.2 0 0 Z " fill="#4A8424" transform="translate(96,320)"/>
<path d="M0 0 C2.64 0 5.28 0 8 0 C8 2.64 8 5.28 8 8 C10.64 8 13.28 8 16 8 C16 10.64 16 13.28 16 16 C21.28 16 26.56 16 32 16 C32 18.64 32 21.28 32 24 C29.36 24 26.72 24 24 24 C24 26.64 24 29.28 24 32 C18.72 32 13.44 32 8 32 C8 34.64 8 37.28 8 40 C5.36 40 2.72 40 0 40 C0 42.64 0 45.28 0 48 C-2.64 48 -5.28 48 -8 48 C-8 50.64 -8 53.28 -8 56 C-10.64 56 -13.28 56 -16 56 C-16 61.28 -16 66.56 -16 72 C-18.64 72 -21.28 72 -24 72 C-24 77.28 -24 82.56 -24 88 C-29.28 88 -34.56 88 -40 88 C-40 85.36 -40 82.72 -40 80 C-37.36 80 -34.72 80 -32 80 C-32 74.72 -32 69.44 -32 64 C-29.36 64 -26.72 64 -24 64 C-24 58.72 -24 53.44 -24 48 C-21.36 48 -18.72 48 -16 48 C-16 45.36 -16 42.72 -16 40 C-13.36 40 -10.72 40 -8 40 C-8 37.36 -8 34.72 -8 32 C-5.36 32 -2.72 32 0 32 C0 29.36 0 26.72 0 24 C-2.64 24 -5.28 24 -8 24 C-8 18.72 -8 13.44 -8 8 C-5.36 8 -2.72 8 0 8 C0 5.36 0 2.72 0 0 Z " fill="#8DD759" transform="translate(72,24)"/>
<path d="M0 0 C15.84 0 31.68 0 48 0 C48 5.28 48 10.56 48 16 C50.64 16 53.28 16 56 16 C56 23.92 56 31.84 56 40 C53.36 40 50.72 40 48 40 C48 45.28 48 50.56 48 56 C42.72 56 37.44 56 32 56 C32 45.44 32 34.88 32 24 C29.36 24 26.72 24 24 24 C24 18.72 24 13.44 24 8 C16.08 8 8.16 8 0 8 C0 5.36 0 2.72 0 0 Z " fill="#4A8424" transform="translate(176,344)"/>
<path d="M0 0 C7.92 0 15.84 0 24 0 C24 2.64 24 5.28 24 8 C21.36 8 18.72 8 16 8 C16 13.28 16 18.56 16 24 C13.36 24 10.72 24 8 24 C8 26.64 8 29.28 8 32 C10.64 32 13.28 32 16 32 C16 34.64 16 37.28 16 40 C18.64 40 21.28 40 24 40 C24 42.64 24 45.28 24 48 C18.72 48 13.44 48 8 48 C8 50.64 8 53.28 8 56 C5.36 56 2.72 56 0 56 C0 37.52 0 19.04 0 0 Z " fill="#FA4CA5" transform="translate(144,128)"/>
<path d="M0 0 C2.64 0 5.28 0 8 0 C8 2.64 8 5.28 8 8 C10.64 8 13.28 8 16 8 C16 13.28 16 18.56 16 24 C13.36 24 10.72 24 8 24 C8 37.2 8 50.4 8 64 C5.36 64 2.72 64 0 64 C0 48.16 0 32.32 0 16 C-2.64 16 -5.28 16 -8 16 C-8 18.64 -8 21.28 -8 24 C-10.64 24 -13.28 24 -16 24 C-16 18.72 -16 13.44 -16 8 C-10.72 8 -5.44 8 0 8 C0 5.36 0 2.72 0 0 Z " fill="#43AA01" transform="translate(96,104)"/>
<path d="M0 0 C2.64 0 5.28 0 8 0 C8 2.64 8 5.28 8 8 C10.64 8 13.28 8 16 8 C16 10.64 16 13.28 16 16 C21.28 16 26.56 16 32 16 C32 18.64 32 21.28 32 24 C29.36 24 26.72 24 24 24 C24 26.64 24 29.28 24 32 C16.08 32 8.16 32 0 32 C0 29.36 0 26.72 0 24 C-2.64 24 -5.28 24 -8 24 C-8 18.72 -8 13.44 -8 8 C-5.36 8 -2.72 8 0 8 C0 5.36 0 2.72 0 0 Z " fill="#EC2B86" transform="translate(72,24)"/>
<path d="M0 0 C7.92 0 15.84 0 24 0 C24 2.64 24 5.28 24 8 C18.72 8 13.44 8 8 8 C8 10.64 8 13.28 8 16 C0.08 16 -7.84 16 -16 16 C-16 18.64 -16 21.28 -16 24 C-21.28 24 -26.56 24 -32 24 C-32 26.64 -32 29.28 -32 32 C-37.28 32 -42.56 32 -48 32 C-48 29.36 -48 26.72 -48 24 C-45.36 24 -42.72 24 -40 24 C-40 21.36 -40 18.72 -40 16 C-34.72 16 -29.44 16 -24 16 C-24 13.36 -24 10.72 -24 8 C-16.08 8 -8.16 8 0 8 C0 5.36 0 2.72 0 0 Z " fill="#283E3E" transform="translate(160,24)"/>
<path d="M0 0 C5.28 0 10.56 0 16 0 C16 5.28 16 10.56 16 16 C13.36 16 10.72 16 8 16 C8 18.64 8 21.28 8 24 C10.64 24 13.28 24 16 24 C16 29.28 16 34.56 16 40 C13.36 40 10.72 40 8 40 C8 37.36 8 34.72 8 32 C5.36 32 2.72 32 0 32 C0 29.36 0 26.72 0 24 C-2.64 24 -5.28 24 -8 24 C-8 18.72 -8 13.44 -8 8 C-5.36 8 -2.72 8 0 8 C0 5.36 0 2.72 0 0 Z " fill="#FA4CA5" transform="translate(328,280)"/>
<path d="M0 0 C5.28 0 10.56 0 16 0 C16 5.28 16 10.56 16 16 C21.28 16 26.56 16 32 16 C32 18.64 32 21.28 32 24 C29.36 24 26.72 24 24 24 C24 26.64 24 29.28 24 32 C18.72 32 13.44 32 8 32 C8 26.72 8 21.44 8 16 C2.72 16 -2.56 16 -8 16 C-8 13.36 -8 10.72 -8 8 C-5.36 8 -2.72 8 0 8 C0 5.36 0 2.72 0 0 Z " fill="#EC2B86" transform="translate(264,240)"/>
<path d="M0 0 C2.64 0 5.28 0 8 0 C8 13.2 8 26.4 8 40 C5.36 40 2.72 40 0 40 C0 42.64 0 45.28 0 48 C-2.64 48 -5.28 48 -8 48 C-8 50.64 -8 53.28 -8 56 C-13.28 56 -18.56 56 -24 56 C-24 53.36 -24 50.72 -24 48 C-21.36 48 -18.72 48 -16 48 C-16 45.36 -16 42.72 -16 40 C-13.36 40 -10.72 40 -8 40 C-8 37.36 -8 34.72 -8 32 C-5.36 32 -2.72 32 0 32 C0 21.44 0 10.88 0 0 Z " fill="#6AA4B5" transform="translate(64,120)"/>
<path d="M0 0 C2.64 0 5.28 0 8 0 C8 7.92 8 15.84 8 24 C10.64 24 13.28 24 16 24 C16 29.28 16 34.56 16 40 C18.64 40 21.28 40 24 40 C24 42.64 24 45.28 24 48 C16.08 48 8.16 48 0 48 C0 32.16 0 16.32 0 0 Z " fill="#EC2B86" transform="translate(144,80)"/>
<path d="M0 0 C2.64 0 5.28 0 8 0 C8 2.64 8 5.28 8 8 C10.64 8 13.28 8 16 8 C16 10.64 16 13.28 16 16 C18.64 16 21.28 16 24 16 C24 29.2 24 42.4 24 56 C21.36 56 18.72 56 16 56 C16 45.44 16 34.88 16 24 C13.36 24 10.72 24 8 24 C8 21.36 8 18.72 8 16 C5.36 16 2.72 16 0 16 C0 10.72 0 5.44 0 0 Z " fill="#8DD759" transform="translate(224,344)"/>
<path d="M0 0 C2.64 0 5.28 0 8 0 C8 2.64 8 5.28 8 8 C6.02 8 4.04 8 2 8 C2 8.66 2 9.32 2 10 C1.34 10 0.68 10 0 10 C0 11.98 0 13.96 0 16 C-2.64 16 -5.28 16 -8 16 C-8 18.64 -8 21.28 -8 24 C-10.64 24 -13.28 24 -16 24 C-16 26.64 -16 29.28 -16 32 C-21.28 32 -26.56 32 -32 32 C-32 29.36 -32 26.72 -32 24 C-29.36 24 -26.72 24 -24 24 C-24 21.36 -24 18.72 -24 16 C-21.36 16 -18.72 16 -16 16 C-16 13.36 -16 10.72 -16 8 C-11.38 8 -6.76 8 -2 8 C-2 7.34 -2 6.68 -2 6 C-1.34 6 -0.68 6 0 6 C0 4.02 0 2.04 0 0 Z " fill="#283E3E" transform="translate(128,8)"/>
<path d="M0 0 C5.28 0 10.56 0 16 0 C16 2.64 16 5.28 16 8 C13.36 8 10.72 8 8 8 C8 10.64 8 13.28 8 16 C13.28 16 18.56 16 24 16 C24 18.64 24 21.28 24 24 C16.08 24 8.16 24 0 24 C0 21.36 0 18.72 0 16 C-2.64 16 -5.28 16 -8 16 C-8 13.36 -8 10.72 -8 8 C-5.36 8 -2.72 8 0 8 C0 5.36 0 2.72 0 0 Z " fill="#EC2B86" transform="translate(152,176)"/>
<path d="M0 0 C2.64 0 5.28 0 8 0 C8 5.28 8 10.56 8 16 C5.36 16 2.72 16 0 16 C0 18.64 0 21.28 0 24 C-2.64 24 -5.28 24 -8 24 C-8 26.64 -8 29.28 -8 32 C-13.28 32 -18.56 32 -24 32 C-24 29.36 -24 26.72 -24 24 C-21.36 24 -18.72 24 -16 24 C-16 21.36 -16 18.72 -16 16 C-13.36 16 -10.72 16 -8 16 C-8 13.36 -8 10.72 -8 8 C-5.36 8 -2.72 8 0 8 C0 5.36 0 2.72 0 0 Z " fill="#43AA01" transform="translate(112,32)"/>
<path d="M0 0 C15.84 0 31.68 0 48 0 C48 2.64 48 5.28 48 8 C32.16 8 16.32 8 0 8 C0 5.36 0 2.72 0 0 Z " fill="#43AA01" transform="translate(176,344)"/>
<path d="M0 0 C5.28 0 10.56 0 16 0 C16 5.28 16 10.56 16 16 C10.72 16 5.44 16 0 16 C0 18.64 0 21.28 0 24 C-2.64 24 -5.28 24 -8 24 C-8 18.72 -8 13.44 -8 8 C-5.36 8 -2.72 8 0 8 C0 5.36 0 2.72 0 0 Z " fill="#FA4CA5" transform="translate(288,264)"/>
<path d="M0 0 C5.28 0 10.56 0 16 0 C16 2.64 16 5.28 16 8 C18.64 8 21.28 8 24 8 C24 10.64 24 13.28 24 16 C18.72 16 13.44 16 8 16 C8 18.64 8 21.28 8 24 C5.36 24 2.72 24 0 24 C0 16.08 0 8.16 0 0 Z " fill="#FA4CA5" transform="translate(144,160)"/>
<path d="M0 0 C2.64 0 5.28 0 8 0 C8 5.28 8 10.56 8 16 C5.36 16 2.72 16 0 16 C0 18.64 0 21.28 0 24 C-5.28 24 -10.56 24 -16 24 C-16 21.36 -16 18.72 -16 16 C-13.36 16 -10.72 16 -8 16 C-8 13.36 -8 10.72 -8 8 C-5.36 8 -2.72 8 0 8 C0 5.36 0 2.72 0 0 Z " fill="#6AA4B5" transform="translate(24,136)"/>
<path d="M0 0 C2.64 0 5.28 0 8 0 C8 2.64 8 5.28 8 8 C10.64 8 13.28 8 16 8 C16 10.64 16 13.28 16 16 C10.72 16 5.44 16 0 16 C0 18.64 0 21.28 0 24 C-2.64 24 -5.28 24 -8 24 C-8 18.72 -8 13.44 -8 8 C-5.36 8 -2.72 8 0 8 C0 5.36 0 2.72 0 0 Z " fill="#FA4CA5" transform="translate(72,24)"/>
<path d="M0 0 C5.28 0 10.56 0 16 0 C16 2.64 16 5.28 16 8 C13.36 8 10.72 8 8 8 C8 13.28 8 18.56 8 24 C5.36 24 2.72 24 0 24 C0 16.08 0 8.16 0 0 Z " fill="#FA4CA5" transform="translate(296,312)"/>
<path d="M0 0 C5.28 0 10.56 0 16 0 C16 5.28 16 10.56 16 16 C10.72 16 5.44 16 0 16 C0 10.72 0 5.44 0 0 Z " fill="#EC2B86" transform="translate(328,280)"/>
<path d="M0 0 C5.28 0 10.56 0 16 0 C16 2.64 16 5.28 16 8 C13.36 8 10.72 8 8 8 C8 13.28 8 18.56 8 24 C5.36 24 2.72 24 0 24 C0 16.08 0 8.16 0 0 Z " fill="#F995C8" transform="translate(152,200)"/>
<path d="M0 0 C2.64 0 5.28 0 8 0 C8 2.64 8 5.28 8 8 C10.64 8 13.28 8 16 8 C16 10.64 16 13.28 16 16 C8.08 16 0.16 16 -8 16 C-8 13.36 -8 10.72 -8 8 C-5.36 8 -2.72 8 0 8 C0 5.36 0 2.72 0 0 Z " fill="#EC2B86" transform="translate(152,112)"/>
<path d="M0 0 C5.28 0 10.56 0 16 0 C16 5.28 16 10.56 16 16 C10.72 16 5.44 16 0 16 C0 10.72 0 5.44 0 0 Z " fill="#F995C8" transform="translate(128,48)"/>
<path d="M0 0 C2.64 0 5.28 0 8 0 C8 7.92 8 15.84 8 24 C5.36 24 2.72 24 0 24 C0 16.08 0 8.16 0 0 Z " fill="#43AA01" transform="translate(256,360)"/>
<path d="M0 0 C2.64 0 5.28 0 8 0 C8 7.92 8 15.84 8 24 C5.36 24 2.72 24 0 24 C0 16.08 0 8.16 0 0 Z " fill="#EC2B86" transform="translate(304,320)"/>
<path d="M0 0 C2.64 0 5.28 0 8 0 C8 2.64 8 5.28 8 8 C10.64 8 13.28 8 16 8 C16 10.64 16 13.28 16 16 C10.72 16 5.44 16 0 16 C0 10.72 0 5.44 0 0 Z " fill="#F995C8" transform="translate(208,208)"/>
<path d="M0 0 C2.64 0 5.28 0 8 0 C8 5.28 8 10.56 8 16 C2.72 16 -2.56 16 -8 16 C-8 13.36 -8 10.72 -8 8 C-5.36 8 -2.72 8 0 8 C0 5.36 0 2.72 0 0 Z " fill="#EC2B86" transform="translate(144,56)"/>
<path d="M0 0 C5.28 0 10.56 0 16 0 C16 2.64 16 5.28 16 8 C13.36 8 10.72 8 8 8 C8 10.64 8 13.28 8 16 C5.36 16 2.72 16 0 16 C0 10.72 0 5.44 0 0 Z " fill="#43AA01" transform="translate(112,56)"/>
<path d="M0 0 C2.64 0 5.28 0 8 0 C8 5.28 8 10.56 8 16 C5.36 16 2.72 16 0 16 C0 10.72 0 5.44 0 0 Z " fill="#43AA01" transform="translate(248,384)"/>
<path d="M0 0 C2.64 0 5.28 0 8 0 C8 5.28 8 10.56 8 16 C5.36 16 2.72 16 0 16 C0 10.72 0 5.44 0 0 Z " fill="#43AA01" transform="translate(144,384)"/>
<path d="M0 0 C2.64 0 5.28 0 8 0 C8 5.28 8 10.56 8 16 C5.36 16 2.72 16 0 16 C0 10.72 0 5.44 0 0 Z " fill="#43AA01" transform="translate(152,368)"/>
<path d="M0 0 C2.64 0 5.28 0 8 0 C8 5.28 8 10.56 8 16 C5.36 16 2.72 16 0 16 C0 10.72 0 5.44 0 0 Z " fill="#6BC237" transform="translate(200,352)"/>
<path d="M0 0 C5.28 0 10.56 0 16 0 C16 2.64 16 5.28 16 8 C10.72 8 5.44 8 0 8 C0 5.36 0 2.72 0 0 Z " fill="#EC2B86" transform="translate(320,312)"/>
<path d="M0 0 C2.64 0 5.28 0 8 0 C8 5.28 8 10.56 8 16 C5.36 16 2.72 16 0 16 C0 10.72 0 5.44 0 0 Z " fill="#EC2B86" transform="translate(296,296)"/>
<path d="M0 0 C2.64 0 5.28 0 8 0 C8 5.28 8 10.56 8 16 C5.36 16 2.72 16 0 16 C0 10.72 0 5.44 0 0 Z " fill="#FA4CA5" transform="translate(232,208)"/>
<path d="M0 0 C2.64 0 5.28 0 8 0 C8 5.28 8 10.56 8 16 C5.36 16 2.72 16 0 16 C0 10.72 0 5.44 0 0 Z " fill="#EC2B86" transform="translate(128,48)"/>
<path d="M0 0 C2.64 0 5.28 0 8 0 C8 2.64 8 5.28 8 8 C6.02 8 4.04 8 2 8 C2 8.66 2 9.32 2 10 C1.34 10 0.68 10 0 10 C0 9.34 0 8.68 0 8 C-0.66 8 -1.32 8 -2 8 C-2 7.34 -2 6.68 -2 6 C-1.34 6 -0.68 6 0 6 C0 4.02 0 2.04 0 0 Z " fill="#394E4E" transform="translate(128,8)"/>
<path d="M0 0 C2.64 0 5.28 0 8 0 C8 2.64 8 5.28 8 8 C5.36 8 2.72 8 0 8 C0 5.36 0 2.72 0 0 Z " fill="#43AA01" transform="translate(160,360)"/>
<path d="M0 0 C2.64 0 5.28 0 8 0 C8 2.64 8 5.28 8 8 C5.36 8 2.72 8 0 8 C0 5.36 0 2.72 0 0 Z " fill="#43AA01" transform="translate(168,352)"/>
<path d="M0 0 C2.64 0 5.28 0 8 0 C8 2.64 8 5.28 8 8 C5.36 8 2.72 8 0 8 C0 5.36 0 2.72 0 0 Z " fill="#F995C8" transform="translate(304,312)"/>
<path d="M0 0 C2.64 0 5.28 0 8 0 C8 2.64 8 5.28 8 8 C5.36 8 2.72 8 0 8 C0 5.36 0 2.72 0 0 Z " fill="#F995C8" transform="translate(320,288)"/>
<path d="M0 0 C2.64 0 5.28 0 8 0 C8 2.64 8 5.28 8 8 C5.36 8 2.72 8 0 8 C0 5.36 0 2.72 0 0 Z " fill="#F995C8" transform="translate(328,280)"/>
<path d="M0 0 C2.64 0 5.28 0 8 0 C8 2.64 8 5.28 8 8 C5.36 8 2.72 8 0 8 C0 5.36 0 2.72 0 0 Z " fill="#EC2B86" transform="translate(288,280)"/>
<path d="M0 0 C2.64 0 5.28 0 8 0 C8 2.64 8 5.28 8 8 C5.36 8 2.72 8 0 8 C0 5.36 0 2.72 0 0 Z " fill="#F995C8" transform="translate(288,264)"/>
<path d="M0 0 C2.64 0 5.28 0 8 0 C8 2.64 8 5.28 8 8 C5.36 8 2.72 8 0 8 C0 5.36 0 2.72 0 0 Z " fill="#FA4CA5" transform="translate(264,240)"/>
<path d="M0 0 C2.64 0 5.28 0 8 0 C8 2.64 8 5.28 8 8 C5.36 8 2.72 8 0 8 C0 5.36 0 2.72 0 0 Z " fill="#EC2B86" transform="translate(248,240)"/>
<path d="M0 0 C2.64 0 5.28 0 8 0 C8 2.64 8 5.28 8 8 C5.36 8 2.72 8 0 8 C0 5.36 0 2.72 0 0 Z " fill="#FA4CA5" transform="translate(248,232)"/>
<path d="M0 0 C2.64 0 5.28 0 8 0 C8 2.64 8 5.28 8 8 C5.36 8 2.72 8 0 8 C0 5.36 0 2.72 0 0 Z " fill="#F995C8" transform="translate(192,216)"/>
<path d="M0 0 C2.64 0 5.28 0 8 0 C8 2.64 8 5.28 8 8 C5.36 8 2.72 8 0 8 C0 5.36 0 2.72 0 0 Z " fill="#F995C8" transform="translate(168,216)"/>
<path d="M0 0 C2.64 0 5.28 0 8 0 C8 2.64 8 5.28 8 8 C5.36 8 2.72 8 0 8 C0 5.36 0 2.72 0 0 Z " fill="#FA4CA5" transform="translate(208,208)"/>
<path d="M0 0 C2.64 0 5.28 0 8 0 C8 2.64 8 5.28 8 8 C5.36 8 2.72 8 0 8 C0 5.36 0 2.72 0 0 Z " fill="#EC2B86" transform="translate(144,152)"/>
<path d="M0 0 C2.64 0 5.28 0 8 0 C8 2.64 8 5.28 8 8 C5.36 8 2.72 8 0 8 C0 5.36 0 2.72 0 0 Z " fill="#EC2B86" transform="translate(152,144)"/>
<path d="M0 0 C2.64 0 5.28 0 8 0 C8 2.64 8 5.28 8 8 C5.36 8 2.72 8 0 8 C0 5.36 0 2.72 0 0 Z " fill="#43AA01" transform="translate(56,136)"/>
<path d="M0 0 C2.64 0 5.28 0 8 0 C8 2.64 8 5.28 8 8 C5.36 8 2.72 8 0 8 C0 5.36 0 2.72 0 0 Z " fill="#43AA01" transform="translate(72,128)"/>
<path d="M0 0 C2.64 0 5.28 0 8 0 C8 2.64 8 5.28 8 8 C5.36 8 2.72 8 0 8 C0 5.36 0 2.72 0 0 Z " fill="#3A8109" transform="translate(48,120)"/>
<path d="M0 0 C2.64 0 5.28 0 8 0 C8 2.64 8 5.28 8 8 C5.36 8 2.72 8 0 8 C0 5.36 0 2.72 0 0 Z " fill="#8DD759" transform="translate(40,120)"/>
<path d="M0 0 C2.64 0 5.28 0 8 0 C8 2.64 8 5.28 8 8 C5.36 8 2.72 8 0 8 C0 5.36 0 2.72 0 0 Z " fill="#F94BA4" transform="translate(144,112)"/>
<path d="M0 0 C2.64 0 5.28 0 8 0 C8 2.64 8 5.28 8 8 C5.36 8 2.72 8 0 8 C0 5.36 0 2.72 0 0 Z " fill="#6AA4B5" transform="translate(56,112)"/>
<path d="M0 0 C2.64 0 5.28 0 8 0 C8 2.64 8 5.28 8 8 C5.36 8 2.72 8 0 8 C0 5.36 0 2.72 0 0 Z " fill="#8DD759" transform="translate(24,112)"/>
<path d="M0 0 C2.64 0 5.28 0 8 0 C8 2.64 8 5.28 8 8 C5.36 8 2.72 8 0 8 C0 5.36 0 2.72 0 0 Z " fill="#F94BA4" transform="translate(152,104)"/>
<path d="M0 0 C2.64 0 5.28 0 8 0 C8 2.64 8 5.28 8 8 C5.36 8 2.72 8 0 8 C0 5.36 0 2.72 0 0 Z " fill="#FEFFFA" transform="translate(88,80)"/>
<path d="M0 0 C2.64 0 5.28 0 8 0 C8 2.64 8 5.28 8 8 C5.36 8 2.72 8 0 8 C0 5.36 0 2.72 0 0 Z " fill="#263E1E" transform="translate(80,80)"/>
<path d="M0 0 C2.64 0 5.28 0 8 0 C8 2.64 8 5.28 8 8 C5.36 8 2.72 8 0 8 C0 5.36 0 2.72 0 0 Z " fill="#FEFFFA" transform="translate(80,72)"/>
<path d="M0 0 C2.64 0 5.28 0 8 0 C8 2.64 8 5.28 8 8 C5.36 8 2.72 8 0 8 C0 5.36 0 2.72 0 0 Z " fill="#43AA01" transform="translate(128,64)"/>
<path d="M0 0 C2.64 0 5.28 0 8 0 C8 2.64 8 5.28 8 8 C5.36 8 2.72 8 0 8 C0 5.36 0 2.72 0 0 Z " fill="#46B800" transform="translate(80,32)"/>
<path d="M0 0 C2.64 0 5.28 0 8 0 C8 2.64 8 5.28 8 8 C5.36 8 2.72 8 0 8 C0 5.36 0 2.72 0 0 Z " fill="#46B800" transform="translate(72,24)"/>
</svg>
